<?xml version="1.0" encoding="utf-8"?>
<svg xmlns="http://www.w3.org/2000/svg">
<symbol id="home" viewBox="0 0 16.013 16">
    <g transform="translate(-562.994 -175)">
        <path d="M565.781 180a1 1 0 0 0-.781 1v7a1 1 0 0 0 1 1h10a1 1 0 0 0 1-1v-7a1 1 0 1 0-2 0v6h-8v-6a1 1 0 0 0-1.219-1z" overflow="visible"/>
        <path d="M570.906 176a1 1 0 0 0-.5.188l-7 5a1.006 1.006 0 1 0 1.188 1.625L571 178.25l6.406 4.563a1.006 1.006 0 1 0 1.188-1.625l-7-5a1 1 0 0 0-.688-.188z" overflow="visible"/>
        <path d="M569 183h3v6h-3z" overflow="visible"/>
        <rect width="1" height="1" x="-579" y="182" rx="0" ry="1" transform="scale(-1 1)"/>
        <rect width="1" height="1" x="-564" y="182" rx="0" ry="1" transform="scale(-1 1)"/>
    </g>

</symbol>
<symbol id="public-share" viewBox="0 0 16 16">
    <path d="M5.969 7.969a2.969 2.969 0 1 1-5.938 0 2.969 2.969 0 1 1 5.938 0zm9.969 5a2.969 2.969 0 1 1-5.938 0 2.969 2.969 0 1 1 5.938 0zm0-10a2.969 2.969 0 1 1-5.938 0 2.969 2.969 0 1 1 5.938 0z" overflow="visible"/>
    <path d="M12.625 2.156L2.562 7.031.75 7.938l1.812.906 10.032 5.062.906-1.812-8.22-4.156 8.219-4-.875-1.782z" overflow="visible"/>

</symbol>
<symbol id="view-more" viewBox="0 0 16 16">
    <g transform="translate(-121 -867)">
        <rect width="4" height="4" x="127" y="867" rx=".385" ry=".502"/>
        <rect width="4" height="4" x="127" y="873" rx=".385" ry=".502"/>
        <rect width="4" height="4" x="127" y="879" rx=".385" ry=".502"/>
    </g>

</symbol>
<symbol id="web-browser" viewBox="0 0 16 16.004">
    <path d="M8 4.846v10.38l-2.344-2.288-1.34 2.734c-.327.74-2.033.145-1.548-.844l1.326-2.839H1.136L8 4.846z" display="block" overflow="visible"/>
    <path d="M7.156 1.063C3.33 1.522.578 5.02 1.063 8.843c.131 1.035.293 1.383.293 1.383l1.675-1.632A4.992 4.992 0 0 1 7.406 3.03a4.992 4.992 0 0 1 5.563 4.375c.314 2.608-1.391 5.025-3.969 5.532l.031 2s.521-.106.624-.131c3.416-.834 5.706-4.128 5.283-7.65-.46-3.827-3.955-6.555-7.782-6.095z" overflow="visible"/>
    <path d="M4.113 7.815v-.206l-.198.019.05-.393h-.117l-.115.15-.116.056-.165-.093-.017-.206.033-.225.248-.186h.199l.033-.113.247.056.182.225.033-.374.314-.262.116-.28.231-.094.133-.187.297-.056.149-.225h-.446l.28-.13h.199l.28-.094.034-.112-.1-.094-.115-.037.033-.112-.083-.169-.198.075.033-.15-.231-.13-.182.317.017.113-.182.075-.116.243-.05-.225-.313-.13-.05-.169.413-.243.182-.168.017-.206-.1-.056L4.84 4l-.082.206s-.139.027-.174.036C4.13 4.66 3.214 5.562 3 7.266c.008.04.155.268.155.268l.347.206.347.093m3.966-4.3l-.43-.168-.496.056-.611.168-.116.112.38.262v.15l-.149.15.199.392.132-.075.165-.262a5.51 5.51 0 0 0 .727-.28l.199-.505m2.529.342l-.375.094-.219.156v.125l-.375.25.094.344.219-.157.125.157.156.093.094-.28L10 4.5l.063-.094.218-.187h.094l-.094.218v.188c.09-.024.16-.051.25-.063l-.25.188v.125l-.312.219-.281-.063v-.156l-.125.062.062.157h-.219l-.125.218-.156.157-.094.03v.188l.032.157H9.03v.53l.063-.03.094-.219L9.375 6l.031-.094.282-.062.156.187.187.094-.093.187.156-.03.062-.22-.187-.218h.062l.22.156.03.219.157.219.062-.313.094-.031c.096.1.169.231.25.344h.281l.188.125-.094.093-.156.157h-.25l-.344-.094h-.188l-.125.156-.343-.375-.25-.062-.375.062-.157.094V9l.032.031.25-.156.093.094h.281l.125.156-.093.312.187.188V10l.125.25-.093.25c-.01.161 0 .307 0 .469.08.219.143.435.218.656l.063.344v.187h.125l.219-.125h.25l.375-.437-.032-.157.25-.218-.187-.188.219-.187.218-.125.094-.125-.062-.25V9.75l.187-.375.188-.25.25-.563v-.156c-.117.015-.23.023-.344.031-.072.005-.145 0-.219 0a7.442 7.442 0 0 1-.312-.78l-.157-.188-.093-.313.062-.062.219.25.25.562.156.156-.062.22.156.155.25-.25.312-.218.157-.188v-.219c-.04-.073-.055-.145-.094-.218l-.156.187-.125-.156-.188-.125v-.281l.219.218.219-.03c.101.091.192.207.28.312L13 7.28c0-.174-.2-1.02-.625-1.75S11.22 4.125 11.22 4.125l-.063.094-.218.218-.25-.25h.25l.125-.125-.47-.093-.25-.094z" opacity=".3" overflow="visible"/>

</symbol>
<symbol id="avatar-default" viewBox="0 0 16 16">
    <path d="M10.555 8.094C9.849 8.717 9.015 9 8 9c-1.016 0-1.853-.29-2.559-.914-1.109.363-2.436 1.288-2.437 2.902L3 14c0 .554.446 1 1 1h8c.554 0 1-.446 1-1v-3c0-1.387-1.102-2.556-2.445-2.906z"/>
    <path d="M11 5a3 3 0 1 1-6 0 3 3 0 1 1 6 0z" overflow="visible"/>

</symbol>
<symbol id="system-software-install" viewBox="0 0 16 16">
    <path d="M3 8h10v7.059c0 .492-.472.937-.996.937H4c-.539 0-1-.43-1-1z" overflow="visible"/>
    <path d="M6.688 2.969a1 1 0 0 0-.657.375L3.22 6.812a1 1 0 0 0-.22.625v1a1 1 0 1 0 2 0v-.656l2.594-3.156a1 1 0 0 0-.907-1.656zm2.218 3a1 1 0 1 0-.031 2l2.156.375V8.5a1 1 0 1 0 2 0v-1a1 1 0 0 0-.812-1l-3-.5a1 1 0 0 0-.313-.031z" overflow="visible"/>

</symbol>
<symbol id="call-start" viewBox="0 0 16 16">
    <path d="M13.032 1c.534 0 .969.427.969.969v.062c-.017 6.613-5.383 11.97-12 11.97H1.97c-.545 0-.97-.447-.97-1v-3c0-.555.447-1 1-1h2c.555 0 1 .445 1 1v.468A8.967 8.967 0 0 0 10.47 5H10c-.553 0-1-.446-1-1V2c0-.554.447-1 1-1h3.032z"/>

</symbol>
<symbol id="go-next" viewBox="0 0 16 16">
    <path d="M11.44 8l-5.719 5.719a1.01 1.01 0 0 1-.719.281h-1v-1c0-.256.086-.523.282-.719l4.28-4.28-4.28-4.282A1.01 1.01 0 0 1 4.002 3V2h1c.256 0 .523.086.72.281z"/>

</symbol>
<symbol id="mark-location" viewBox="0 0 16 16.003">
    <path d="M8 0a5 5 0 0 0-5 5c0 .173.014.332.031.5.014.167.036.336.063.5C3.666 9.514 6 12.003 8 14.003c2-2 4.334-4.489 4.906-8.003a6.38 6.38 0 0 0 .063-.5c.017-.168.03-.327.03-.5a5 5 0 0 0-5-5zm0 3a2 2 0 1 1 0 4 2 2 0 0 1 0-4z" solid-color="#000000"/>

</symbol>
<symbol id="note" viewBox="0 0 14 16"><path fill-rule="evenodd" d="M3 10h4V9H3v1zm0-2h6V7H3v1zm0-2h8V5H3v1zm10 6H1V3h12v9zM1 2c-.55 0-1 .45-1 1v9c0 .55.45 1 1 1h12c.55 0 1-.45 1-1V3c0-.55-.45-1-1-1H1z"/>
</symbol>
<symbol id="check" viewBox="0 0 12 16"><path fill-rule="evenodd" d="M12 5l-8 8-4-4 1.5-1.5L4 10l6.5-6.5L12 5z"/>
</symbol>
<symbol id="facebook" viewBox="0 0 266.893 266.895">
    <path d="M248.08 262.31c7.854 0 14.223-6.37 14.223-14.225V18.815c0-7.857-6.368-14.224-14.223-14.224H18.81c-7.857 0-14.224 6.368-14.224 14.225v229.27c0 7.855 6.366 14.225 14.224 14.225h229.27z" fill="#3C5A99"/>
    <path d="M182.41 262.31v-99.803h33.5l5.015-38.895H182.41V98.77c0-11.262 3.127-18.936 19.275-18.936l20.596-.01V45.038c-3.56-.474-15.787-1.533-30.01-1.533-29.696 0-50.026 18.126-50.026 51.413V123.6H108.66v38.896h33.584V262.3h40.15z" fill="#FFF"/>

</symbol>
<symbol id="yelp" viewBox="0 0 256 256">
	<rect rx="38.658" ry="38.658" height="256" width="256" y="0" x="0" fill="#f00"/>
	<path d="m57.553 46.523c16.117-14.423 35.013-24.569 63.917-19.323v92.898c-1.2386 4.4597-4.9542 5.451-8.1754 2.9739zm115.35 33.814c12.946 8.0871 27.436 24.252 31.541 48.056l-62.234 10.076c-3.5904-1.3638-6.2908-3.6176-5.9455-8.9183l36.64-49.213zm-28.834 79.685c-4.0142 0.90087-6.1383 3.3137-5.2026 8.1743l31.478 53.288c13.998-6.4227 27.968-21.414 34.293-43.626zm-32.329 7.4314c4.1634-0.5403 8.0512-0.62092 9.2898 3.7157l1.8573 59.455c-20.46 1.52-37.512-3.76-49.057-20.06zm-8.18-27.49c2.9739 3.5741 4.6416 7.3344 0.74292 11.891l-57.225 20.065c-6.7462-18.626-6.1285-36.12 0-52.766z" stroke-width="1.0893" fill="#fff"/>

</symbol>
<symbol id="tripadvisor" viewBox="0 0 168.163 115.54">
    <path d="M88.28 0C73.612 0 60.36 3.694 49.909 10.523l-17.58.016s4.148 5.537 5.494 11.121l44.495 34.139 5.972 8.928 6.031-9.004 44.596-34.088c1.324-5.62 5.521-11.23 5.521-11.23l-18.734-.013C115.194 3.603 102.424 0 88.278 0zM30.448 81.868c-1.987-.002-2.984 2.4-1.58 3.805 1.403 1.406 3.806.414 3.808-1.573a2.236 2.236 0 0 0-2.228-2.232zm-23.06 1.989l-.26.094-3.378 1.158v4.41H.004v2.96h3.637v9.49c0 4.52 1.54 6.363 5.31 6.363.963 0 1.879-.123 2.799-.37l.143-.04-.038-3.06-.265.085c-.736.267-1.319.393-1.774.393-1.765 0-2.427-1-2.427-3.692v-9.17h4.326V89.52H7.389v-5.663zm38.177 5.229c-2.57 0-4.735 1.227-6.176 3.437v-3.004h-3.428v26.021h3.748v-10.093c1.354 1.842 3.297 2.848 5.713 2.848 4.74 0 7.797-3.886 7.797-9.89 0-5.576-3.07-9.32-7.654-9.32zm-21.73.107c-2.173 0-3.925 1.175-5.023 3.326v-3h-3.425v18.486h3.748v-9.277c0-3.896 1.634-6.033 4.595-6.033.427 0 .847.065 1.352.207l.242.07.121-3.65zm4.743.326v18.486h3.75V89.518h-3.75zm16.086 2.668c2.898 0 4.633 2.405 4.633 6.434 0 4.104-1.833 6.645-4.776 6.645-2.967 0-4.812-2.53-4.812-6.612 0-3.926 1.945-6.467 4.955-6.467z" fill="#000a12"/>
    <path d="M115.484 10.318a28.015 28.015 0 0 0-8.839 1.695c-7.039 2.605-12.639 7.787-15.777 14.603-1.418 3.075-2.22 6.326-2.475 9.597-1.044-14.34-12.878-25.716-27.414-26.003C69.02 6.77 78.257 4.9 88.27 4.9c10.08 0 19.18 1.817 27.213 5.418" fill="#fcc40f"/>
    <path d="M87.03 80.696V92.03c-1.381-1.924-3.303-2.945-5.783-2.945-4.578 0-7.653 3.777-7.653 9.388 0 5.783 3.113 9.823 7.584 9.823 2.647 0 4.706-1.173 6.14-3.452v3.16h3.464V80.697H87.03zm28.195 1.172c-1.986 0-2.981 2.399-1.579 3.804s3.804.413 3.807-1.572a2.236 2.236 0 0 0-2.228-2.232zm-51.06 7.217c-2.285 0-4.292.433-6.136 1.322l-.115.053.043 3.2.29-.165c1.765-.986 3.428-1.49 4.952-1.49 2.713 0 4.266 1.557 4.266 4.273v.156h-2.143c-6.167 0-9.568 2.236-9.568 6.293 0 3.256 2.452 5.531 5.96 5.531 2.582 0 4.581-1.013 6.003-2.923v2.67h3.39V96.814c0-5.124-2.331-7.729-6.941-7.729zm81.274 0c-5.635 0-9.137 3.708-9.137 9.68 0 5.967 3.502 9.673 9.137 9.673 5.659 0 9.176-3.706 9.176-9.674 0-5.97-3.517-9.68-9.176-9.68zm21.113.107c-2.165 0-3.922 1.175-5.024 3.326v-3h-3.421v18.486h3.748v-9.277c0-3.896 1.63-6.033 4.595-6.033.428 0 .844.064 1.348.207l.242.07.125-3.65-1.613-.13zm-38.26.113c-4.064 0-6.795 1.987-6.795 4.953 0 2.603 1.788 3.977 5.086 5.58 2.077 1.027 3.17 1.627 3.17 3.067 0 1.475-1.341 2.433-3.408 2.433-1.473 0-3.099-.418-4.707-1.205l-.276-.138-.123 3.26.13.052c1.538.61 3.177.92 4.831.918 4.586 0 7.549-2.189 7.549-5.57 0-2.823-1.879-4.249-5.125-5.764-2.38-1.114-3.38-1.775-3.38-2.955 0-1.122 1.111-1.853 2.825-1.853 1.55 0 3.065.342 4.496 1.023l.264.125.17-3.188-.145-.056c-1.562-.451-3.09-.682-4.562-.682zm-35.22.213l9.061 18.486 9.313-18.486h-3.918l-5.317 10.67-4.912-10.67h-4.226zm20.28 0v18.486h3.752V89.518h-3.753zm32.123 2.526c3.165 0 5.207 2.623 5.207 6.683 0 4.035-2.042 6.643-5.207 6.643-3.113 0-5.205-2.669-5.205-6.643 0-3.992 2.092-6.683 5.205-6.683zm-63.396.039c3.102 0 4.949 2.465 4.949 6.609 0 3.946-1.913 6.504-4.88 6.504-2.853 0-4.628-2.495-4.628-6.504 0-4.015 1.789-6.61 4.559-6.61zm-16.543 6.992h1.928v1.13c0 3.187-1.916 5.24-4.885 5.24-1.81 0-3.078-1.192-3.078-2.9 0-2.237 2.144-3.47 6.035-3.47z" fill="#00b087"/>
    <g transform="translate(303.132 52.1)">
        <circle cx="-243.06" stroke="#000a12" cy="-12.704" r="25.132" stroke-width="5.847" fill="#fff"/>
        <circle cx="-243.06" stroke="#000a12" cy="-12.704" r="11.3" stroke-width="5.102" fill="none"/>
        <circle cx="-243.06" cy="-12.704" r="4.667" fill="#ef6a45"/>
    </g>
    <g transform="translate(219.705 88.308)">
        <circle cx="-103.09" stroke="#000a12" cy="-48.962" r="25.132" stroke-width="5.847" fill="#fff"/>
        <circle cx="-103.09" stroke="#000a12" cy="-48.962" r="11.3" stroke-width="5.102" fill="none"/>
        <circle cx="-103.09" cy="-48.962" r="4.667" fill="#00b087"/>
    </g>

</symbol>
<symbol id="twitter" viewBox="0 0 341.7375 277.725">
    <path fill="#6babe1" d="M107.475 277.72C67.88 277.72 31.03 266.113 0 246.22c5.485.65 11.066.98 16.725.98 32.847 0 63.08-11.21 87.074-30.013-30.68-.566-56.574-20.836-65.495-48.69a70.083 70.083 0 0 0 13.19 1.256c6.395 0 12.59-.856 18.473-2.458-32.074-6.44-56.242-34.778-56.242-68.748 0-.296 0-.588.006-.88a69.83 69.83 0 0 0 31.756 8.768c-18.812-12.573-31.19-34.033-31.19-58.356 0-12.85 3.457-24.894 9.492-35.25 34.58 42.42 86.24 70.33 144.512 73.255a70.387 70.387 0 0 1-1.816-15.978c0-38.718 31.393-70.11 70.114-70.11 20.165 0 38.386 8.515 51.176 22.142a140.382 140.382 0 0 0 44.52-17.016c-5.233 16.372-16.35 30.112-30.826 38.79 14.182-1.695 27.695-5.464 40.27-11.04-9.4 14.06-21.29 26.408-34.986 36.293.135 3.007.202 6.03.202 9.07 0 92.65-70.52 199.488-199.475 199.488"/>

</symbol>
<symbol id="linkedin" viewBox="0 0 64 64">
    <path fill="#fff" d="M10.305 11.119h43.119v42.847H10.305z"/>
    <path d="M12.8 51.2V24.384h8.192V51.2H12.8m8.448-34.24c.064 2.304-1.664 4.16-4.416 4.16-2.56 0-4.224-1.856-4.224-4.16 0-2.368 1.728-4.16 4.352-4.16s4.288 1.792 4.288 4.16M42.752 51.2V36.352c0-3.456-1.152-5.824-4.16-5.824-2.24 0-3.584 1.6-4.224 3.136-.192.576-.256 1.344-.256 2.112V51.2H25.92V32.96c0-3.328-.128-6.144-.192-8.576h7.104l.384 3.776h.128c1.088-1.792 3.776-4.352 8.192-4.352 5.376 0 9.472 3.648 9.472 11.584V51.2h-8.256M64 5.632C64 2.56 61.44 0 58.368 0H5.632C2.56 0 0 2.56 0 5.632v52.736C0 61.44 2.56 64 5.632 64h52.736C61.44 64 64 61.44 64 58.368V5.632" fill="#1d87bd"/>

</symbol>
<symbol id="youtube" viewBox="0 0 256 180">
	<path d="m101.6 123.2l69.2-35.8-69.2-36.1v71.9z" fill="#FFF"/>
	<path opacity=".12" d="m101.6 51.3l60.7 40.5 8.5-4.4-69.2-36.1z" fill="#420000"/>
	<path fill="#bf171d" d="m253.3 38.8c-1.88-13.981-8.42-29.299-23.02-33.835-16.05-4.2161-32.96-2.9887-49.4-4.1201-49.07-1.2709-98.277-1.4605-147.24 2.2613-14.07 1.1629-26.069 12.107-28.842 25.919-4.7102 19.159-4.5895 39.155-4.798 58.786.044311 20.409-.026870 41.079 4.26 61.099 2.4268 13.2 12.368 24.88 26.024 26.94 27.447 4.096 55.358 3.0724 83.032 3.9746 36.322.27585 72.726-.11654 108.94-3.0267 14.925-1.1556 26.962-13.363 29.48-27.882 5.0811-24.421 4.2467-49.587 4.1702-74.419-.32-11.935-1.22-23.848-2.6-35.7zm-151.74 84.4v-71.9l69.172 36.1-69.172 35.8z"/>

</symbol>
<symbol id="mail" viewBox="0 0 14 16"><path fill-rule="evenodd" d="M0 4v8c0 .55.45 1 1 1h12c.55 0 1-.45 1-1V4c0-.55-.45-1-1-1H1c-.55 0-1 .45-1 1zm13 0L7 9 1 4h12zM1 5.5l4 3-4 3v-6zM2 12l3.5-3L7 10.5 8.5 9l3.5 3H2zm11-.5l-4-3 4-3v6z"/>
</symbol>
<symbol id="mail-unread" viewBox="0 0 16 16">
    <path d="M2.781 4a1 1 0 0 0-.406 1.781l5 4 .625.5.625-.5 5-4a1 1 0 1 0-1.25-1.562L8 7.719l-4.375-3.5A1 1 0 0 0 2.781 4z" overflow="visible"/>
    <path d="M1.906 3A1 1 0 0 0 1 4v9a1 1 0 0 0 1 1h12a1 1 0 0 0 1-1V4a1 1 0 0 0-1-1H2a1 1 0 0 0-.094 0zM3 5h10v7H3V5z" overflow="visible"/>

</symbol>
<symbol id="mark-github" viewBox="0 0 16 16"><path fill-rule="evenodd" d="M8 0C3.58 0 0 3.58 0 8c0 3.54 2.29 6.53 5.47 7.59.4.07.55-.17.55-.38 0-.19-.01-.82-.01-1.49-2.01.37-2.53-.49-2.69-.94-.09-.23-.48-.94-.82-1.13-.28-.15-.68-.52-.01-.53.63-.01 1.08.58 1.23.82.72 1.21 1.87.87 2.33.66.07-.52.28-.87.51-1.07-1.78-.2-3.64-.89-3.64-3.95 0-.87.31-1.59.82-2.15-.08-.2-.36-1.02.08-2.12 0 0 .67-.21 2.2.82.64-.18 1.32-.27 2-.27.68 0 1.36.09 2 .27 1.53-1.04 2.2-.82 2.2-.82.44 1.1.16 1.92.08 2.12.51.56.82 1.27.82 2.15 0 3.07-1.87 3.75-3.65 3.95.29.25.54.73.54 1.48 0 1.07-.01 1.93-.01 2.2 0 .21.15.46.55.38A8.013 8.013 0 0 0 16 8c0-4.42-3.58-8-8-8z"/>
</symbol>
<symbol id="repo" viewBox="0 0 12 16"><path fill-rule="evenodd" d="M4 9H3V8h1v1zm0-3H3v1h1V6zm0-2H3v1h1V4zm0-2H3v1h1V2zm8-1v12c0 .55-.45 1-1 1H6v2l-1.5-1.5L3 16v-2H1c-.55 0-1-.45-1-1V1c0-.55.45-1 1-1h10c.55 0 1 .45 1 1zm-1 10H1v2h2v-1h3v1h5v-2zm0-10H2v9h9V1z"/>
</symbol>
<symbol id="issue-opened" viewBox="0 0 14 16"><path fill-rule="evenodd" d="M7 2.3c3.14 0 5.7 2.56 5.7 5.7s-2.56 5.7-5.7 5.7A5.71 5.71 0 0 1 1.3 8c0-3.14 2.56-5.7 5.7-5.7zM7 1C3.14 1 0 4.14 0 8s3.14 7 7 7 7-3.14 7-7-3.14-7-7-7zm1 3H6v5h2V4zm0 6H6v2h2v-2z"/>
</symbol>
<symbol id="link" viewBox="0 0 16 16"><path fill-rule="evenodd" d="M4 9h1v1H4c-1.5 0-3-1.69-3-3.5S2.55 3 4 3h4c1.45 0 3 1.69 3 3.5 0 1.41-.91 2.72-2 3.25V8.59c.58-.45 1-1.27 1-2.09C10 5.22 8.98 4 8 4H4c-.98 0-2 1.22-2 2.5S3 9 4 9zm9-3h-1v1h1c1 0 2 1.22 2 2.5S13.98 12 13 12H9c-.98 0-2-1.22-2-2.5 0-.83.42-1.64 1-2.09V6.25c-1.09.53-2 1.84-2 3.25C6 11.31 7.55 13 9 13h4c1.45 0 3-1.69 3-3.5S14.5 6 13 6z"/>
</symbol>
<symbol id="link-external" viewBox="0 0 12 16"><path fill-rule="evenodd" d="M11 10h1v3c0 .55-.45 1-1 1H1c-.55 0-1-.45-1-1V3c0-.55.45-1 1-1h3v1H1v10h10v-3zM6 2l2.25 2.25L5 7.5 6.5 9l3.25-3.25L12 8V2H6z"/>
</symbol>
<symbol id="chevron-down" viewBox="0 0 10 16"><path fill-rule="evenodd" d="M5 11L0 6l1.5-1.5L5 8.25 8.5 4.5 10 6l-5 5z"/>
</symbol>
<symbol id="creative-commons-by-sa" viewBox="0 0 119.99902 42.001411">
    <g transform="matrix(.99378 0 0 .99367 -177.694 -74.436)">
        <path fill="#aab2ab" d="M182.24 75.39l114.06.203c1.59 0 3.02-.237 3.02 3.18l-.14 37.567H179.36V78.634c0-1.685.16-3.244 2.88-3.244z"/>
        <path d="M213.544 94.607c.01 7.577-6.136 13.723-13.713 13.728-7.576.004-13.722-6.135-13.73-13.712v-.016c0-7.58 6.136-13.724 13.713-13.73 7.577-.004 13.723 6.136 13.73 13.713v.017z" fill="#fff"/>
        <path d="M210.97 83.428c3.046 3.047 4.565 6.774 4.565 11.182 0 4.4-1.493 8.092-4.487 11.05-3.17 3.126-6.922 4.69-11.243 4.69-4.278 0-7.96-1.555-11.06-4.645-3.1-3.1-4.644-6.8-4.644-11.095 0-4.303 1.546-8.03 4.645-11.182 3.02-3.038 6.704-4.565 11.06-4.565 4.4 0 8.126 1.527 11.164 4.565zm-20.174 2.05c-2.575 2.594-3.858 5.64-3.858 9.132s1.274 6.512 3.814 9.052c2.55 2.55 5.578 3.824 9.096 3.824s6.573-1.292 9.166-3.86c2.47-2.39 3.7-5.393 3.7-9.016 0-3.596-1.247-6.643-3.752-9.148-2.506-2.514-5.544-3.762-9.114-3.762s-6.59 1.257-9.052 3.78zm6.765 7.596c-.392-.856-.976-1.283-1.762-1.283-1.388 0-2.086.935-2.086 2.803s.698 2.802 2.086 2.802c.916 0 1.57-.463 1.964-1.37l1.92 1.02c-.916 1.633-2.295 2.445-4.13 2.445-1.413 0-2.54-.428-3.394-1.3-.847-.865-1.275-2.06-1.275-3.58 0-1.5.437-2.688 1.318-3.57.874-.882 1.966-1.318 3.275-1.318 1.938 0 3.326.76 4.172 2.287l-2.086 1.064zm9.045 0c-.393-.856-.97-1.283-1.73-1.283-1.413 0-2.12.935-2.12 2.803s.707 2.802 2.12 2.802c.918 0 1.564-.463 1.93-1.37l1.964 1.02c-.917 1.633-2.288 2.445-4.12 2.445-1.406 0-2.54-.428-3.388-1.3-.855-.865-1.274-2.06-1.274-3.58 0-1.5.428-2.688 1.292-3.57s1.964-1.318 3.29-1.318c1.94 0 3.327.76 4.165 2.287l-2.13 1.064z"/>
        <path d="M297.3 74.91H181.07a2.26 2.26 0 0 0-2.26 2.262v39.498c0 .28.22.51.51.51h119.73c.28 0 .51-.23.51-.51V77.172c0-1.247-1.02-2.26-2.26-2.26zm-116.23 1.022H297.3c.68 0 1.24.556 1.24 1.24v27.418h-83.08c-3.04 5.51-8.91 9.24-15.64 9.24-6.74 0-12.6-3.73-15.65-9.24h-4.34V77.172c0-.684.55-1.24 1.24-1.24z"/>
        <path d="M265.61 112.88c.08.16.19.29.32.38.13.1.29.17.47.22.18.04.37.07.56.07.13 0 .27-.01.42-.04.15-.02.29-.06.42-.12s.24-.15.32-.26a.63.63 0 0 0 .13-.41c0-.18-.05-.33-.17-.44-.11-.12-.26-.21-.45-.28-.19-.08-.4-.14-.63-.2-.24-.06-.48-.12-.72-.19-.25-.06-.49-.13-.73-.22-.23-.09-.45-.21-.63-.35-.19-.15-.34-.33-.45-.54-.12-.22-.18-.48-.18-.78 0-.34.08-.64.22-.89.15-.25.34-.46.58-.63.23-.17.5-.3.8-.38s.59-.12.89-.12c.35 0 .69.04 1.01.12.31.08.6.2.85.38.25.17.44.4.59.67s.22.6.22.98h-1.42c-.01-.2-.06-.36-.13-.49s-.16-.24-.28-.31c-.12-.08-.25-.13-.4-.16-.16-.03-.32-.05-.5-.05-.12 0-.24.02-.35.04-.12.03-.23.07-.32.13-.1.06-.18.14-.24.23-.06.1-.09.22-.09.36 0 .13.02.24.07.32s.15.15.29.22c.15.07.35.14.61.21s.59.15 1.01.26c.12.02.3.07.52.13.22.07.44.17.65.32.22.14.41.33.57.57s.24.55.24.92c0 .31-.06.59-.18.85s-.3.49-.53.68-.52.33-.87.44c-.34.11-.74.16-1.2.16-.36 0-.72-.05-1.06-.14-.35-.09-.65-.23-.92-.42-.26-.2-.47-.44-.63-.74-.15-.3-.23-.65-.22-1.07h1.42c0 .23.04.42.12.57zm8.26-5.01l2.49 6.66h-1.52l-.51-1.48h-2.49l-.52 1.48h-1.48l2.52-6.66h1.51zm.08 4.08l-.84-2.44h-.02l-.87 2.44h1.73zm-34.77-4.08c.32 0 .61.03.87.08.26.06.48.15.67.28.19.12.33.29.44.5.1.22.15.48.15.79 0 .33-.08.61-.23.84-.15.22-.38.4-.68.55.41.12.72.32.93.62.2.29.3.65.3 1.07 0 .33-.07.63-.2.87-.13.25-.3.45-.52.6-.23.16-.48.27-.76.35-.29.07-.58.11-.88.11h-3.23v-6.66h3.14zm-.19 2.69c.26 0 .48-.06.65-.18.16-.13.25-.33.25-.61 0-.15-.03-.28-.09-.38a.544.544 0 0 0-.22-.23c-.09-.06-.2-.1-.32-.12s-.25-.03-.38-.03h-1.37v1.55h1.48zm.09 2.83c.14 0 .28-.01.41-.04s.24-.08.34-.14c.1-.07.18-.16.24-.27s.09-.25.09-.43c0-.34-.1-.58-.29-.73-.19-.14-.45-.22-.77-.22h-1.59v1.83h1.57zm2.81-5.52h1.64l1.56 2.63 1.55-2.63h1.64l-2.48 4.1v2.56h-1.46v-2.59l-2.45-4.07zm39.96-17.89c.005 5.888-4.764 10.656-10.645 10.662S260.55 95.88 260.55 90v-.02c-.008-5.88 4.76-10.65 10.642-10.656s10.657 4.762 10.657 10.644v.012z" fill="#fff"/>
        <path d="M271.123 78.314c-3.232 0-5.97 1.128-8.207 3.383-2.3 2.334-3.45 5.096-3.45 8.285s1.15 5.933 3.45 8.227c2.294 2.294 5.03 3.442 8.206 3.442 3.213 0 5.994-1.158 8.357-3.472 2.217-2.198 3.324-4.93 3.324-8.198 0-3.266-1.125-6.03-3.388-8.285-2.256-2.255-5.025-3.383-8.294-3.383zm.03 2.1c2.644 0 4.894.933 6.744 2.8 1.87 1.848 2.807 4.104 2.807 6.768 0 2.684-.913 4.91-2.744 6.68-1.93 1.907-4.2 2.86-6.806 2.86-2.613 0-4.863-.943-6.75-2.83-1.888-1.886-2.83-4.123-2.83-6.71-.002-2.586.948-4.842 2.86-6.768 1.832-1.867 4.07-2.8 6.72-2.8z"/>
        <path d="M265.947 88.336c.47-2.937 2.538-4.505 5.125-4.505 3.725 0 5.994 2.704 5.994 6.308 0 3.517-2.412 6.25-6.05 6.25-2.506 0-4.744-1.54-5.156-4.564h2.944c.087 1.57 1.106 2.122 2.562 2.122 1.656 0 2.73-1.54 2.73-3.895 0-2.47-.93-3.777-2.674-3.777-1.28 0-2.387.465-2.618 2.063l.856-.005-2.32 2.315-2.31-2.314.917.006z"/>
        <circle cy="90.225" cx="242.56" r="10.806" fill="#fff"/>
        <path d="M245.69 87.098a.754.754 0 0 0-.75-.754h-4.78c-.41 0-.75.337-.75.754v4.773h1.33v5.653h3.62V91.87h1.33V87.1z"/>
        <circle cy="84.083" cx="242.55" r="1.632"/>
        <path fill-rule="evenodd" clip-rule="evenodd" d="M242.53 78.318c-3.23 0-5.96 1.128-8.2 3.384-2.3 2.333-3.45 5.095-3.45 8.284s1.15 5.932 3.45 8.227c2.29 2.297 5.03 3.447 8.2 3.447 3.22 0 6-1.16 8.36-3.476 2.22-2.197 3.33-4.93 3.33-8.198 0-3.267-1.13-6.028-3.39-8.284s-5.02-3.384-8.3-3.384zm.03 2.1c2.65 0 4.9.934 6.75 2.8 1.87 1.848 2.81 4.104 2.81 6.768 0 2.684-.92 4.91-2.75 6.68-1.93 1.907-4.2 2.86-6.81 2.86s-4.85-.943-6.74-2.83c-1.89-1.886-2.84-4.123-2.84-6.71 0-2.586.96-4.842 2.87-6.767 1.83-1.868 4.07-2.802 6.71-2.802z"/>
    </g>

</symbol>
<symbol id="x" viewBox="0 0 12 16"><path fill-rule="evenodd" d="M7.48 8l3.75 3.75-1.48 1.48L6 9.48l-3.75 3.75-1.48-1.48L4.52 8 .77 4.25l1.48-1.48L6 6.52l3.75-3.75 1.48 1.48L7.48 8z"/>
</symbol>
<symbol id="address-book" viewBox="0 0 16 16">
    <path d="M1.189 14c0 1.09.91 2 2 2h8.823c1.09 0 2-.91 2-2V3c0-1.09-.91-2-2-2H3.189c-1.09 0-2 .91-2 2h10.823v11H1.189z" overflow="visible"/>
    <path d="M.594 12a.502.502 0 1 0 .093 1H2.5a.5.5 0 1 0 0-1H.687a.5.5 0 0 0-.093 0zm0-2a.502.502 0 1 0 .093 1H2.5a.5.5 0 1 0 0-1H.687a.5.5 0 0 0-.093 0zm0-2a.502.502 0 1 0 .093 1H2.5a.5.5 0 1 0 0-1H.687a.5.5 0 0 0-.093 0zm0-2a.502.502 0 1 0 .093 1H2.5a.5.5 0 1 0 0-1H.687a.5.5 0 0 0-.093 0zm0-2a.502.502 0 1 0 .093 1H2.5a.5.5 0 1 0 0-1H.687a.5.5 0 0 0-.093 0z" overflow="visible"/>
    <path d="M7 10c.328.066.666.007 1 0 .334-.007.669.04 1 0 .624-.074 1.196-.462 1.523-.998a2.41 2.41 0 0 0 .26-1.817A2.807 2.807 0 0 0 9.75 5.652 3.366 3.366 0 0 0 8.009 5a3.737 3.737 0 0 0-2.565.746 3.69 3.69 0 0 0-1.382 2.285 3.647 3.647 0 0 0 .185 1.895c.228.6.618 1.137 1.119 1.54.5.402 1.11.668 1.744.76A3.647 3.647 0 0 0 9 12v-1c-.453.299-1 .453-1.542.437a2.677 2.677 0 0 1-1.513-.53 2.676 2.676 0 0 1-.932-1.304A2.677 2.677 0 0 1 5 8a2.818 2.818 0 0 1 1.154-1.511A3.13 3.13 0 0 1 8 6c.537.026 1.082.193 1.483.551.2.18.362.404.456.656.095.252.12.53.061.793-.054.24-.18.464-.355.637a1.294 1.294 0 0 1-.645.34V8a1.628 1.628 0 0 0-.595-.737 1.628 1.628 0 0 0-.905-.277c-.32 0-.64.098-.905.277-.266.18-.476.44-.595.737-.158.394-.152.856.033 1.238.186.383.55.678.967.762m1.036-.977a.708.708 0 0 1-.814.132.707.707 0 0 1-.378-.732.707.707 0 0 1 .453-.554A.706.706 0 0 1 8 8" letter-spacing="0" word-spacing="0"/>

</symbol>
<symbol id="calendar" viewBox="0 0 14 16"><path fill-rule="evenodd" d="M13 2h-1v1.5c0 .28-.22.5-.5.5h-2c-.28 0-.5-.22-.5-.5V2H6v1.5c0 .28-.22.5-.5.5h-2c-.28 0-.5-.22-.5-.5V2H2c-.55 0-1 .45-1 1v11c0 .55.45 1 1 1h11c.55 0 1-.45 1-1V3c0-.55-.45-1-1-1zm0 12H2V5h11v9zM5 3H4V1h1v2zm6 0h-1V1h1v2zM6 7H5V6h1v1zm2 0H7V6h1v1zm2 0H9V6h1v1zm2 0h-1V6h1v1zM4 9H3V8h1v1zm2 0H5V8h1v1zm2 0H7V8h1v1zm2 0H9V8h1v1zm2 0h-1V8h1v1zm-8 2H3v-1h1v1zm2 0H5v-1h1v1zm2 0H7v-1h1v1zm2 0H9v-1h1v1zm2 0h-1v-1h1v1zm-8 2H3v-1h1v1zm2 0H5v-1h1v1zm2 0H7v-1h1v1zm2 0H9v-1h1v1z"/>
</symbol></svg>